<?xml version="1.0" encoding="UTF-8"?>
<!DOCTYPE svg PUBLIC "-//W3C//DTD SVG 1.1//EN" "http://www.w3.org/Graphics/SVG/1.1/DTD/svg11.dtd">
<!-- Creator: CorelDRAW 2019 (64-Bit) -->
<svg xmlns="http://www.w3.org/2000/svg" xml:space="preserve" width="118px" height="36px" version="1.1" shape-rendering="geometricPrecision" text-rendering="geometricPrecision" image-rendering="optimizeQuality" fill-rule="evenodd" clip-rule="evenodd"
viewBox="0 0 120.91 36.96"
 xmlns:xlink="http://www.w3.org/1999/xlink">
 <g id="Слой_x0020_1">
  <metadata id="CorelCorpID_0Corel-Layer"/>
  <path fill="#2B2A29" fill-rule="nonzero" d="M35.04 2.08c0,0.86 -1.04,2.5 -3.14,4.93 -2.1,2.42 -4.13,4.36 -6.11,5.81 -1.5,3.3 -3.05,5.7 -4.65,7.22 -1.59,1.51 -3.75,2.61 -6.46,3.31 4.78,1.27 7.64,2.02 8.59,2.23 0.94,0.21 1.84,0.32 2.71,0.32 1.25,0 2.38,-0.45 3.39,-1.35 0.1,-0.06 0.17,-0.09 0.2,-0.09 0.06,0.02 0.09,0.05 0.11,0.09 0,0.19 -0.32,0.51 -0.96,0.95 -1.18,0.81 -2.89,1.21 -5.14,1.21 -1.64,0 -3.23,-0.16 -4.76,-0.47 -1.52,-0.31 -3.84,-0.97 -6.97,-1.97 -2,0.39 -4.07,0.59 -6.19,0.59 -3.77,0 -5.66,-0.58 -5.66,-1.73 0,-1.08 1.44,-1.62 4.32,-1.62 2.24,0 5.57,0.57 10,1.73 1.32,-0.52 2.49,-1.28 3.52,-2.29 1.03,-1.02 2.32,-2.71 3.88,-5.06 -3.58,3.13 -6.92,4.69 -10.03,4.69 -2.11,0 -3.8,-0.62 -5.05,-1.87 -1.25,-1.25 -1.88,-2.94 -1.88,-5.07 0,-3.25 1.54,-6.34 4.62,-9.26 3.08,-2.92 6.33,-4.38 9.76,-4.38 1.58,0 2.85,0.41 3.79,1.22 0.94,0.82 1.42,1.93 1.42,3.32 0,2.46 -1.15,5.01 -3.46,7.63 -2.3,2.63 -4.53,3.95 -6.68,3.95 -0.91,0 -1.68,-0.29 -2.31,-0.87 -0.63,-0.57 -0.94,-1.28 -0.94,-2.12 0,-0.65 0.2,-1.21 0.6,-1.68 0.4,-0.48 0.87,-0.72 1.42,-0.72 0.74,0 1.11,0.37 1.11,1.1 0,0.4 -0.14,0.75 -0.43,1.06 -0.29,0.31 -0.61,0.46 -0.97,0.46 -0.58,0 -0.87,-0.27 -0.84,-0.81 0.01,-0.35 -0.03,-0.53 -0.13,-0.53 -0.27,0 -0.4,0.38 -0.4,1.12 0,0.76 0.29,1.4 0.86,1.9 0.57,0.51 1.28,0.76 2.14,0.76 1.98,0 4.09,-1.29 6.33,-3.88 2.24,-2.59 3.36,-5.03 3.36,-7.33 0,-1.24 -0.42,-2.25 -1.27,-3.05 -0.84,-0.8 -1.93,-1.2 -3.25,-1.2 -3.19,0 -6.23,1.59 -9.14,4.77 -2.92,3.19 -4.37,6.5 -4.37,9.94 0,1.63 0.51,2.9 1.55,3.82 1.04,0.93 2.47,1.39 4.28,1.39 1.56,0 3.12,-0.39 4.66,-1.15 1.54,-0.77 3.44,-2.11 5.7,-4.02 1.89,-3.16 3.25,-5.35 4.11,-6.58 0.81,-1.18 1.79,-2.36 2.93,-3.56 2.22,-2.33 3.92,-3.5 5.09,-3.5 0.5,0 0.74,0.21 0.74,0.64zm-0.29 0.01c0,-0.26 -0.14,-0.39 -0.43,-0.39 -0.89,0 -2.11,0.9 -3.67,2.71 -1.37,1.63 -2.92,4.25 -4.61,7.87 2.06,-1.66 4.02,-3.59 5.9,-5.78 1.87,-2.2 2.81,-3.67 2.81,-4.41zm-23.49 22c-4.22,-1.33 -7.09,-1.99 -8.6,-1.99 -1.58,0 -2.37,0.34 -2.37,1.03 0,0.93 1.85,1.4 5.54,1.4 2,0 3.81,-0.15 5.43,-0.44zm22.78 -12.32c0,0.42 -0.18,0.81 -0.53,1.18 -0.35,0.37 -0.74,0.55 -1.17,0.55 -0.54,0 -0.81,-0.27 -0.81,-0.81 0,-0.4 0.19,-0.78 0.56,-1.14 0.38,-0.37 0.76,-0.56 1.18,-0.56 0.51,0 0.77,0.26 0.77,0.78zm0.24 7.43c-0.01,0.04 -0.07,0.14 -0.18,0.29l-0.78 1.06c-2.25,3.14 -3.97,4.72 -5.16,4.72 -0.56,0 -1.03,-0.21 -1.41,-0.61 -0.38,-0.39 -0.57,-0.9 -0.57,-1.49 0,-0.7 0.42,-1.76 1.25,-3.17l2.81 -4.77c0.38,0.09 0.67,0.13 0.88,0.13 0.33,0 0.78,-0.04 1.37,-0.13l-4.09 6.72c-0.59,0.97 -0.89,1.72 -0.89,2.25 0,0.54 0.28,0.81 0.85,0.81 1.06,0 2.94,-1.91 5.63,-5.74 0.06,-0.12 0.12,-0.18 0.18,-0.18 0.07,0 0.11,0.04 0.11,0.11zm12.36 0.04c0,0.19 -0.65,1.01 -1.95,2.46 -1.45,1.61 -3.32,3.04 -5.63,4.3l-0.89 1.63c-1.64,3.02 -3.47,5.34 -5.49,6.97 -1.95,1.57 -3.63,2.36 -5.05,2.36 -0.51,0 -0.94,-0.15 -1.27,-0.47 -0.34,-0.31 -0.51,-0.69 -0.51,-1.15 0,-2.46 2.78,-4.96 8.34,-7.49 1.2,-0.55 1.97,-0.92 2.32,-1.11l3.06 -5.65c-1.33,1.77 -2.27,2.9 -2.82,3.42 -0.54,0.51 -1.11,0.76 -1.68,0.76 -0.62,0 -1.15,-0.28 -1.59,-0.83 -0.44,-0.55 -0.66,-1.23 -0.66,-2.01 0,-2.08 1.36,-3.96 4.07,-5.65 1.81,-1.13 3.23,-1.69 4.26,-1.69 0.72,0 1.08,0.39 1.08,1.18 0,0.22 -0.06,0.48 -0.16,0.78l1.01 -1.82c0.32,0.09 0.61,0.13 0.85,0.13 0.3,0 0.76,-0.04 1.36,-0.13 -0.09,0.12 -0.61,1.01 -1.59,2.7l-4.46 7.71c1.58,-0.89 2.84,-1.74 3.78,-2.57 0.94,-0.83 2.01,-2.03 3.2,-3.58 0.18,-0.24 0.3,-0.36 0.36,-0.36 0.04,0.01 0.06,0.05 0.06,0.11zm-4.6 -2.97c0,-0.62 -0.3,-0.92 -0.88,-0.92 -1.08,0 -2.51,1.07 -4.3,3.23 -1.78,2.16 -2.67,3.9 -2.67,5.22 0,0.8 0.35,1.21 1.04,1.21 0.71,0 1.91,-1.07 3.61,-3.21 2.14,-2.7 3.2,-4.55 3.2,-5.53zm-5.71 10.77c-0.23,0.13 -0.91,0.48 -2.04,1.03 -5.48,2.71 -8.22,5.15 -8.22,7.32 0,0.37 0.14,0.68 0.42,0.93 0.27,0.25 0.63,0.38 1.06,0.38 1.32,0 2.61,-0.67 3.86,-2.03 1.25,-1.35 2.82,-3.77 4.7,-7.27 0,0 0.08,-0.12 0.22,-0.36zm23 -7.84c0,0.25 -0.88,1.42 -2.63,3.5 -1.41,1.71 -2.53,2.57 -3.34,2.57 -0.56,0 -1.01,-0.21 -1.35,-0.62 -0.35,-0.42 -0.52,-0.94 -0.52,-1.56 0,-0.65 0.19,-1.35 0.58,-2.11 -1.2,1.68 -2.12,2.82 -2.75,3.4 -0.64,0.59 -1.26,0.89 -1.86,0.89 -0.63,0 -1.17,-0.27 -1.6,-0.82 -0.43,-0.55 -0.64,-1.24 -0.64,-2.06 0,-2.3 1.62,-4.34 4.87,-6.12 1.43,-0.79 2.58,-1.18 3.46,-1.18 0.74,0 1.11,0.36 1.11,1.08 0,0.21 -0.05,0.47 -0.14,0.81l0.91 -1.75c0.36,0.09 0.68,0.13 0.96,0.13 0.32,0 0.74,-0.04 1.26,-0.13l-3.18 5.28c-1.1,1.85 -1.65,3.07 -1.65,3.65 0,0.57 0.23,0.85 0.7,0.85 0.47,0 1.24,-0.55 2.29,-1.65 1.05,-1.11 2.12,-2.47 3.21,-4.09 0.07,-0.12 0.13,-0.18 0.2,-0.18 0.07,0 0.11,0.04 0.11,0.11zm-4.93 -2.97c0,-0.59 -0.27,-0.88 -0.81,-0.88 -1.11,0 -2.56,1.08 -4.35,3.24 -1.8,2.17 -2.7,3.91 -2.7,5.25 0,0.78 0.36,1.17 1.05,1.17 0.83,0 2.26,-1.38 4.31,-4.13 1.67,-2.26 2.5,-3.81 2.5,-4.65zm46.45 -10.09c0,0.62 -0.09,1.31 -0.26,2.05 -0.17,0.75 -0.34,1.12 -0.5,1.12 -0.12,0 -0.17,-0.06 -0.17,-0.18 0,-0.04 0.01,-0.09 0.03,-0.16 0.3,-0.84 0.46,-1.75 0.46,-2.72 0,-1.52 -0.45,-2.73 -1.35,-3.66 -0.9,-0.91 -2.08,-1.37 -3.55,-1.37 -1.98,0 -4.03,0.65 -6.13,1.95 1.79,1.45 2.69,3.08 2.69,4.9 0,1.54 -0.61,2.88 -1.85,4.02 -1.24,1.14 -2.68,1.71 -4.33,1.71 -0.66,0 -1.35,-0.13 -2.09,-0.39 -0.75,-0.26 -1.12,-0.51 -1.12,-0.74 0.03,-0.07 0.08,-0.11 0.14,-0.11 0.07,0 0.16,0.04 0.29,0.11 0.75,0.44 1.5,0.65 2.25,0.65 1.37,0 2.54,-0.59 3.51,-1.76 0.98,-1.18 1.47,-2.59 1.47,-4.23 0,-1.4 -0.5,-2.66 -1.5,-3.76 -2.61,1.94 -5.08,5.37 -7.42,10.27 -1.42,2.96 -2.72,5.1 -3.9,6.41 -1.17,1.31 -2.82,2.49 -4.94,3.55 -2.51,1.22 -4.76,1.84 -6.72,1.84 -1.61,0 -2.95,-0.37 -4.02,-1.11 -1.07,-0.74 -1.6,-1.66 -1.6,-2.77 0,-0.61 0.18,-1.13 0.54,-1.58 0.37,-0.45 0.81,-0.67 1.31,-0.67 0.73,0 1.1,0.41 1.1,1.23 0,0.4 -0.13,0.75 -0.37,1.04 -0.25,0.28 -0.55,0.43 -0.91,0.43 -0.62,0 -0.92,-0.32 -0.9,-0.97 0.01,-0.26 -0.01,-0.4 -0.07,-0.4 -0.19,0 -0.29,0.32 -0.29,0.95 0,1 0.49,1.83 1.47,2.49 0.98,0.66 2.21,0.99 3.7,0.99 2.63,0 5.02,-0.97 7.15,-2.92 0.94,-0.85 1.73,-1.72 2.4,-2.61 0.72,-0.96 2.29,-3.29 4.71,-6.99 1.22,-1.83 2.65,-3.65 4.29,-5.49 1.64,-1.84 3.05,-3.15 4.2,-3.94 -1.88,-1.6 -4.63,-2.4 -8.25,-2.4 -5.07,0 -9.48,1.83 -13.22,5.49 -3.08,3.01 -4.61,5.84 -4.61,8.49 0,1.34 0.43,2.41 1.29,3.21 0.87,0.79 2.04,1.18 3.51,1.18 2.42,0 4.92,-1.15 7.49,-3.47 2.58,-2.32 3.86,-4.57 3.86,-6.75 0,-1.74 -0.89,-2.61 -2.68,-2.61 -1.79,0 -3.7,1 -5.75,3 -2.05,2 -3.08,3.87 -3.08,5.63 0,0.43 0.15,0.81 0.44,1.12 0.29,0.31 0.62,0.47 1.01,0.47 0.2,0 0.31,0.05 0.31,0.16 0,0.1 -0.12,0.14 -0.35,0.14 -0.58,0 -1.07,-0.26 -1.47,-0.78 -0.4,-0.52 -0.6,-1.16 -0.6,-1.92 0,-1.88 1.03,-3.71 3.08,-5.49 2.05,-1.78 4.16,-2.67 6.33,-2.67 2.06,0 3.1,0.96 3.1,2.87 0,2.33 -1.32,4.68 -3.95,7.06 -2.63,2.38 -5.22,3.57 -7.77,3.57 -1.67,0 -3,-0.5 -4,-1.5 -1.01,-1 -1.51,-2.34 -1.51,-4.02 0,-3.4 1.92,-6.5 5.75,-9.3 3.84,-2.81 8.08,-4.21 12.73,-4.21 3.53,0 6.49,0.78 8.89,2.35 2.2,-1.37 4.33,-2.05 6.38,-2.05 1.61,0 2.9,0.47 3.88,1.44 0.98,0.96 1.47,2.23 1.47,3.81zm-2.82 13.1c0,0.1 -0.37,0.53 -1.08,1.31 -0.92,1 -1.78,1.51 -2.59,1.51 -0.91,0 -1.37,-0.53 -1.37,-1.59 0,-0.34 0.08,-0.76 0.22,-1.28 -0.76,0.66 -1.37,1.32 -1.85,1.96 -0.48,0.66 -1.29,1.98 -2.46,3.97 -0.64,-0.05 -1.01,-0.07 -1.12,-0.07 -0.04,0 -0.41,0.02 -1.1,0.07l2.96 -4.79c1.47,-2.41 2.21,-3.9 2.21,-4.48 0,-0.34 -0.14,-0.5 -0.41,-0.5 -0.67,0 -1.88,1.29 -3.64,3.89 -0.11,0.17 -0.2,0.25 -0.29,0.25 -0.04,-0.01 -0.07,-0.04 -0.07,-0.11 0.01,-0.06 0.04,-0.11 0.07,-0.14l0.33 -0.45c1.85,-2.47 3.09,-3.7 3.75,-3.7 0.96,0 1.44,0.62 1.44,1.85 0,0.93 -0.49,2.15 -1.48,3.68 0.62,-0.73 1.22,-1.31 1.79,-1.77 0.45,-1.07 1.02,-1.96 1.69,-2.68 0.69,-0.72 1.29,-1.08 1.83,-1.08 0.37,0 0.56,0.16 0.56,0.48 0,0.58 -0.84,1.4 -2.51,2.47 -0.26,0.16 -0.66,0.42 -1.19,0.74l-0.22 0.18c-0.16,0.55 -0.25,1.01 -0.25,1.37 0,1 0.38,1.51 1.14,1.51 0.94,0 1.96,-0.77 3.08,-2.31 0.24,-0.27 0.39,-0.4 0.45,-0.4 0.07,0 0.11,0.03 0.11,0.11zm10.61 -0.04c0,0.19 -0.35,0.64 -1.06,1.35 -1.06,1.05 -2.03,1.58 -2.91,1.58 -0.38,0 -0.71,-0.07 -0.99,-0.21 -1.59,2.23 -3.08,3.35 -4.47,3.35 -0.72,0 -1.34,-0.3 -1.85,-0.89 -0.51,-0.59 -0.76,-1.31 -0.76,-2.14 0,-1.84 1.21,-3.62 3.64,-5.34 1.71,-1.21 3.11,-1.81 4.22,-1.81 1.03,0 1.55,0.55 1.55,1.65 0,1.38 -0.73,3.05 -2.18,4.99 0.24,0.14 0.51,0.22 0.81,0.22 0.54,0 1.17,-0.25 1.88,-0.76 0.72,-0.5 1.31,-1.1 1.76,-1.81 0.14,-0.17 0.23,-0.25 0.29,-0.25 0.05,0 0.07,0.02 0.07,0.07zm-2.89 -2.43c0,-0.98 -0.44,-1.46 -1.32,-1.46 -1.09,0 -2.42,1.04 -3.99,3.13 -1.58,2.1 -2.36,3.86 -2.36,5.29 0,0.83 0.39,1.24 1.18,1.24 1.3,0 2.72,-1.07 4.26,-3.21 -0.35,-0.38 -0.53,-0.78 -0.53,-1.19 0,-0.58 0.24,-1.19 0.71,-1.82 0.46,-0.63 0.92,-0.93 1.37,-0.93 0.19,0 0.32,0.11 0.39,0.35 0.19,-0.42 0.29,-0.88 0.29,-1.4zm15.16 -10.46c0,1.07 -0.76,2.41 -2.27,4.02 -1.51,1.62 -3.49,3.21 -5.94,4.76l3.09 0 -0.16 0.26 -3.13 0 -1.48 2.86c-1.81,3.54 -3.36,6.21 -4.64,8 -1.29,1.8 -2.77,3.4 -4.45,4.81 -2.32,1.92 -4.47,2.88 -6.47,2.88 -0.88,0 -1.32,-0.13 -1.32,-0.39 0,-0.12 0.06,-0.18 0.19,-0.18 0.1,0 0.17,0.02 0.22,0.04 0.43,0.13 0.84,0.2 1.22,0.2 1.62,0 3.25,-0.73 4.9,-2.18 1.01,-0.89 1.89,-1.94 2.64,-3.14 0.63,-0.96 2.11,-3.58 4.44,-7.86l2.77 -5.04 -1.92 0 0.14 -0.26 1.96 0c1.54,-2.61 3.24,-4.87 5.09,-6.77 1.87,-1.91 3.3,-2.86 4.31,-2.86 0.54,0 0.81,0.28 0.81,0.85zm-0.22 -0.03c0,-0.4 -0.2,-0.6 -0.6,-0.6 -0.91,0 -2.15,1.05 -3.72,3.14 -0.78,1.05 -1.95,3.01 -3.53,5.9 1.97,-1.37 3.77,-2.93 5.4,-4.68 1.63,-1.75 2.45,-3.01 2.45,-3.76zm-1.19 5.49c0,0.42 -0.18,0.81 -0.53,1.18 -0.35,0.37 -0.74,0.55 -1.16,0.55 -0.55,0 -0.82,-0.27 -0.82,-0.81 0,-0.4 0.19,-0.78 0.56,-1.14 0.38,-0.37 0.77,-0.56 1.18,-0.56 0.51,0 0.77,0.26 0.77,0.78zm0.24 7.43c-0.01,0.04 -0.07,0.14 -0.18,0.29l-0.78 1.06c-2.25,3.14 -3.97,4.72 -5.16,4.72 -0.56,0 -1.03,-0.21 -1.41,-0.61 -0.37,-0.39 -0.57,-0.9 -0.57,-1.49 0,-0.7 0.42,-1.76 1.25,-3.17l2.81 -4.77c0.38,0.09 0.67,0.13 0.88,0.13 0.33,0 0.78,-0.04 1.37,-0.13l-4.09 6.72c-0.59,0.97 -0.89,1.72 -0.89,2.25 0,0.54 0.29,0.81 0.85,0.81 1.06,0 2.95,-1.91 5.63,-5.74 0.06,-0.12 0.12,-0.18 0.18,-0.18 0.07,0 0.11,0.04 0.11,0.11z"/>
 </g>
</svg>
