<?xml version="1.0" encoding="UTF-8"?>
<!DOCTYPE svg PUBLIC "-//W3C//DTD SVG 1.1//EN" "http://www.w3.org/Graphics/SVG/1.1/DTD/svg11.dtd">
<!-- Creator: CorelDRAW 2019 (64-Bit) -->
<svg xmlns="http://www.w3.org/2000/svg" xml:space="preserve" width="368px" height="113px" version="1.1" shape-rendering="geometricPrecision" text-rendering="geometricPrecision" image-rendering="optimizeQuality" fill-rule="evenodd" clip-rule="evenodd"
viewBox="0 0 368 112.49"
 xmlns:xlink="http://www.w3.org/1999/xlink">
 <g id="Слой_x0020_1">
  <metadata id="CorelCorpID_0Corel-Layer"/>
  <path fill="#834E98" fill-rule="nonzero" d="M106.65 6.33c0,2.62 -3.17,7.61 -9.56,15.01 -6.39,7.36 -12.57,13.27 -18.6,17.68 -4.56,10.04 -9.28,17.35 -14.15,21.97 -4.84,4.6 -11.41,7.95 -19.66,10.08 14.55,3.86 23.25,6.15 26.14,6.79 2.86,0.63 5.6,0.97 8.25,0.97 3.81,0 7.25,-1.37 10.32,-4.11 0.3,-0.18 0.52,-0.27 0.61,-0.27 0.18,0.06 0.27,0.15 0.33,0.27 0,0.58 -0.97,1.55 -2.92,2.89 -3.59,2.47 -8.8,3.68 -15.64,3.68 -4.99,0 -9.83,-0.48 -14.49,-1.43 -4.63,-0.94 -11.69,-2.95 -21.21,-5.99 -6.09,1.19 -12.39,1.79 -18.84,1.79 -11.48,0 -17.23,-1.76 -17.23,-5.26 0,-3.29 4.38,-4.93 13.15,-4.93 6.82,0 16.95,1.73 30.43,5.26 4.02,-1.58 7.58,-3.89 10.72,-6.97 3.13,-3.1 7.06,-8.25 11.81,-15.4 -10.9,9.53 -21.07,14.28 -30.53,14.28 -6.42,0 -11.57,-1.89 -15.37,-5.69 -3.8,-3.81 -5.72,-8.95 -5.72,-15.44 0,-9.89 4.68,-19.29 14.06,-28.18 9.37,-8.89 19.26,-13.33 29.7,-13.33 4.81,0 8.68,1.25 11.54,3.71 2.86,2.5 4.32,5.88 4.32,10.11 0,7.49 -3.5,15.25 -10.53,23.22 -7,8 -13.79,12.02 -20.33,12.02 -2.77,0 -5.12,-0.88 -7.03,-2.65 -1.92,-1.73 -2.86,-3.89 -2.86,-6.45 0,-1.98 0.61,-3.68 1.82,-5.11 1.22,-1.46 2.65,-2.19 4.32,-2.19 2.26,0 3.38,1.12 3.38,3.35 0,1.21 -0.42,2.28 -1.3,3.22 -0.89,0.95 -1.86,1.4 -2.96,1.4 -1.76,0 -2.65,-0.82 -2.55,-2.46 0.03,-1.07 -0.1,-1.62 -0.4,-1.62 -0.82,0 -1.22,1.16 -1.22,3.41 0,2.32 0.88,4.26 2.62,5.79 1.73,1.55 3.9,2.31 6.51,2.31 6.03,0 12.45,-3.93 19.27,-11.81 6.82,-7.88 10.22,-15.31 10.22,-22.31 0,-3.77 -1.27,-6.85 -3.86,-9.28 -2.56,-2.44 -5.87,-3.65 -9.89,-3.65 -9.71,0 -18.96,4.83 -27.82,14.51 -8.89,9.71 -13.3,19.79 -13.3,30.26 0,4.96 1.55,8.82 4.72,11.62 3.16,2.83 7.51,4.23 13.02,4.23 4.75,0 9.5,-1.18 14.19,-3.5 4.68,-2.34 10.47,-6.42 17.34,-12.23 5.76,-9.62 9.9,-16.29 12.51,-20.03 2.47,-3.59 5.45,-7.18 8.92,-10.83 6.76,-7.1 11.93,-10.66 15.49,-10.66 1.53,0 2.26,0.64 2.26,1.95l0 0zm-0.89 0.03c0,-0.79 -0.42,-1.18 -1.3,-1.18 -2.71,0 -6.43,2.73 -11.17,8.24 -4.17,4.96 -8.89,12.94 -14.03,23.96 6.27,-5.06 12.23,-10.93 17.95,-17.6 5.69,-6.69 8.56,-11.17 8.56,-13.42l-0.01 0zm-71.49 66.96c-12.84,-4.05 -21.58,-6.05 -26.17,-6.05 -4.81,0 -7.22,1.03 -7.22,3.13 0,2.83 5.63,4.26 16.86,4.26 6.09,0 11.6,-0.46 16.53,-1.34zm69.33 -37.5c0,1.28 -0.54,2.47 -1.61,3.6 -1.06,1.12 -2.25,1.67 -3.56,1.67 -1.64,0 -2.46,-0.82 -2.46,-2.47 0,-1.21 0.57,-2.37 1.7,-3.46 1.16,-1.13 2.31,-1.71 3.59,-1.71 1.55,0 2.34,0.79 2.34,2.37zm0.73 22.62c-0.03,0.12 -0.21,0.43 -0.54,0.88l-2.38 3.23c-6.85,9.55 -12.08,14.36 -15.7,14.36 -1.71,0 -3.14,-0.64 -4.29,-1.85 -1.16,-1.19 -1.74,-2.74 -1.74,-4.54 0,-2.13 1.28,-5.36 3.8,-9.65l8.56 -14.51c1.15,0.27 2.04,0.39 2.68,0.39 1,0 2.37,-0.12 4.17,-0.39l-12.45 20.45c-1.8,2.95 -2.71,5.23 -2.71,6.85 0,1.64 0.85,2.46 2.59,2.46 3.22,0 8.94,-5.81 17.13,-17.47 0.18,-0.36 0.37,-0.55 0.55,-0.55 0.21,0 0.33,0.12 0.33,0.34l0 0zm37.62 0.12c0,0.58 -1.98,3.07 -5.93,7.49 -4.42,4.9 -10.11,9.25 -17.14,13.09l-2.71 4.96c-4.99,9.19 -10.56,16.25 -16.71,21.21 -5.93,4.78 -11.04,7.18 -15.37,7.18 -1.55,0 -2.86,-0.45 -3.86,-1.43 -1.04,-0.94 -1.55,-2.1 -1.55,-3.5 0,-7.48 8.46,-15.09 25.38,-22.79 3.65,-1.68 6,-2.8 7.06,-3.38l9.32 -17.2c-4.05,5.39 -6.91,8.83 -8.59,10.41 -1.64,1.55 -3.38,2.31 -5.11,2.31 -1.89,0 -3.5,-0.85 -4.84,-2.52 -1.34,-1.68 -2.01,-3.75 -2.01,-6.12 0,-6.33 4.14,-12.05 12.39,-17.2 5.51,-3.44 9.83,-5.14 12.96,-5.14 2.2,0 3.29,1.19 3.29,3.59 0,0.67 -0.18,1.46 -0.49,2.37l3.08 -5.53c0.97,0.27 1.85,0.39 2.59,0.39 0.91,0 2.31,-0.12 4.13,-0.39 -0.27,0.36 -1.85,3.07 -4.83,8.21l-13.58 23.47c4.81,-2.71 8.64,-5.3 11.5,-7.82 2.87,-2.53 6.12,-6.18 9.74,-10.9 0.55,-0.73 0.92,-1.09 1.1,-1.09 0.12,0.03 0.18,0.15 0.18,0.33l0 0zm-14 -9.04c0,-1.89 -0.91,-2.8 -2.68,-2.8 -3.28,0 -7.64,3.26 -13.08,9.83 -5.42,6.58 -8.13,11.87 -8.13,15.89 0,2.43 1.07,3.68 3.16,3.68 2.17,0 5.82,-3.26 10.99,-9.77 6.52,-8.22 9.74,-13.85 9.74,-16.83l0 0zm-17.38 32.78c-0.7,0.4 -2.77,1.46 -6.21,3.13 -16.67,8.25 -25.01,15.68 -25.01,22.28 0,1.13 0.42,2.07 1.27,2.83 0.83,0.76 1.92,1.16 3.23,1.16 4.02,0 7.94,-2.04 11.75,-6.18 3.8,-4.11 8.58,-11.47 14.3,-22.13 0,0 0.25,-0.36 0.67,-1.09l0 0zm70.01 -23.86c0,0.76 -2.68,4.32 -8.01,10.65 -4.29,5.21 -7.7,7.82 -10.16,7.82 -1.71,0 -3.08,-0.64 -4.11,-1.88 -1.07,-1.28 -1.59,-2.86 -1.59,-4.75 0,-1.98 0.58,-4.11 1.77,-6.42 -3.65,5.11 -6.45,8.58 -8.37,10.34 -1.95,1.8 -3.83,2.71 -5.66,2.71 -1.92,0 -3.56,-0.82 -4.87,-2.49 -1.31,-1.68 -1.95,-3.78 -1.95,-6.27 0,-7 4.93,-13.21 14.83,-18.63 4.35,-2.4 7.85,-3.59 10.53,-3.59 2.25,0 3.38,1.1 3.38,3.29 0,0.64 -0.16,1.43 -0.43,2.46l2.77 -5.33c1.09,0.28 2.07,0.4 2.92,0.4 0.97,0 2.25,-0.12 3.83,-0.4l-9.67 16.07c-3.35,5.64 -5.03,9.35 -5.03,11.11 0,1.74 0.71,2.59 2.14,2.59 1.43,0 3.77,-1.67 6.97,-5.02 3.19,-3.38 6.45,-7.52 9.77,-12.45 0.21,-0.36 0.39,-0.55 0.6,-0.55 0.22,0 0.34,0.12 0.34,0.34l0 0zm-15.01 -9.04c0,-1.8 -0.82,-2.68 -2.46,-2.68 -3.38,0 -7.79,3.29 -13.24,9.86 -5.48,6.61 -8.22,11.9 -8.22,15.98 0,2.38 1.1,3.56 3.2,3.56 2.52,0 6.87,-4.2 13.11,-12.57 5.09,-6.88 7.61,-11.59 7.61,-14.15l0 0zm141.38 -30.71c0,1.89 -0.28,3.99 -0.8,6.24 -0.51,2.28 -1.03,3.41 -1.52,3.41 -0.36,0 -0.52,-0.19 -0.52,-0.55 0,-0.12 0.04,-0.28 0.1,-0.49 0.91,-2.56 1.39,-5.32 1.39,-8.28 0,-4.62 -1.37,-8.31 -4.1,-11.14 -2.74,-2.77 -6.33,-4.17 -10.81,-4.17 -6.03,0 -12.26,1.98 -18.66,5.94 5.45,4.41 8.19,9.37 8.19,14.91 0,4.69 -1.86,8.77 -5.63,12.24 -3.78,3.47 -8.16,5.2 -13.18,5.2 -2.01,0 -4.11,-0.39 -6.36,-1.19 -2.28,-0.79 -3.41,-1.55 -3.41,-2.25 0.09,-0.21 0.24,-0.33 0.43,-0.33 0.21,0 0.48,0.12 0.88,0.33 2.28,1.34 4.57,1.98 6.85,1.98 4.17,0 7.73,-1.79 10.68,-5.36 2.98,-3.59 4.47,-7.88 4.47,-12.87 0,-4.26 -1.52,-8.1 -4.56,-11.44 -7.95,5.9 -15.46,16.34 -22.58,31.25 -4.33,9.01 -8.28,15.53 -11.88,19.51 -3.56,3.99 -8.58,7.58 -15.03,10.81 -7.64,3.71 -14.49,5.6 -20.45,5.6 -4.9,0 -8.98,-1.13 -12.24,-3.38 -3.26,-2.25 -4.87,-5.05 -4.87,-8.43 0,-1.86 0.55,-3.44 1.65,-4.81 1.12,-1.37 2.46,-2.04 3.98,-2.04 2.22,0 3.35,1.25 3.35,3.74 0,1.22 -0.39,2.29 -1.13,3.17 -0.76,0.85 -1.67,1.31 -2.76,1.31 -1.89,0 -2.8,-0.98 -2.74,-2.96 0.03,-0.79 -0.03,-1.21 -0.22,-1.21 -0.57,0 -0.88,0.97 -0.88,2.89 0,3.04 1.49,5.57 4.48,7.58 2.98,2 6.72,3.01 11.26,3.01 8,0 15.27,-2.95 21.76,-8.89 2.86,-2.59 5.26,-5.23 7.3,-7.94 2.19,-2.92 6.97,-10.02 14.34,-21.28 3.71,-5.57 8.06,-11.11 13.05,-16.71 5,-5.6 9.29,-9.58 12.79,-11.99 -5.72,-4.87 -14.09,-7.3 -25.11,-7.3 -15.43,0 -28.86,5.57 -40.24,16.71 -9.37,9.16 -14.03,17.77 -14.03,25.84 0,4.08 1.31,7.33 3.93,9.77 2.65,2.4 6.21,3.59 10.68,3.59 7.37,0 14.98,-3.5 22.8,-10.56 7.85,-7.06 11.75,-13.91 11.75,-20.55 0,-5.29 -2.71,-7.94 -8.16,-7.94 -5.45,0 -11.26,3.04 -17.5,9.13 -6.24,6.09 -9.38,11.78 -9.38,17.14 0,1.3 0.46,2.46 1.34,3.4 0.89,0.95 1.89,1.43 3.08,1.43 0.61,0 0.94,0.16 0.94,0.49 0,0.31 -0.36,0.43 -1.06,0.43 -1.77,0 -3.26,-0.79 -4.48,-2.38 -1.21,-1.58 -1.82,-3.53 -1.82,-5.84 0,-5.72 3.13,-11.29 9.37,-16.71 6.24,-5.42 12.66,-8.13 19.27,-8.13 6.27,0 9.43,2.93 9.43,8.74 0,7.09 -4.02,14.24 -12.02,21.49 -8.01,7.24 -15.89,10.86 -23.65,10.86 -5.08,0 -9.13,-1.52 -12.17,-4.56 -3.08,-3.05 -4.6,-7.13 -4.6,-12.24 0,-10.35 5.85,-19.78 17.5,-28.3 11.69,-8.56 24.59,-12.82 38.75,-12.82 10.74,0 19.75,2.38 27.06,7.15 6.69,-4.17 13.17,-6.24 19.41,-6.24 4.9,0 8.83,1.43 11.81,4.39 2.99,2.92 4.48,6.78 4.48,11.59l0 0.01zm-8.59 39.87c0,0.31 -1.12,1.61 -3.28,3.99 -2.8,3.04 -5.42,4.59 -7.89,4.59 -2.77,0 -4.17,-1.61 -4.17,-4.84 0,-1.03 0.25,-2.31 0.67,-3.89 -2.31,2.01 -4.17,4.01 -5.63,5.96 -1.46,2.01 -3.92,6.03 -7.49,12.08 -1.94,-0.15 -3.07,-0.21 -3.4,-0.21 -0.13,0 -1.25,0.06 -3.35,0.21l9.01 -14.57c4.47,-7.34 6.72,-11.87 6.72,-13.64 0,-1.03 -0.42,-1.52 -1.25,-1.52 -2.04,0 -5.72,3.93 -11.08,11.84 -0.33,0.52 -0.6,0.76 -0.88,0.76 -0.12,-0.03 -0.21,-0.12 -0.21,-0.33 0.03,-0.19 0.12,-0.34 0.21,-0.43l1.01 -1.37c5.63,-7.52 9.4,-11.26 11.41,-11.26 2.92,0 4.38,1.89 4.38,5.63 0,2.83 -1.49,6.54 -4.5,11.2 1.89,-2.22 3.71,-3.99 5.45,-5.39 1.37,-3.25 3.1,-5.96 5.14,-8.15 2.1,-2.2 3.92,-3.29 5.57,-3.29 1.13,0 1.7,0.49 1.7,1.46 0,1.77 -2.55,4.26 -7.64,7.52 -0.79,0.48 -2.01,1.28 -3.62,2.25l-0.67 0.55c-0.49,1.67 -0.76,3.07 -0.76,4.17 0,3.04 1.16,4.59 3.47,4.59 2.86,0 5.97,-2.34 9.38,-7.03 0.73,-0.82 1.18,-1.22 1.37,-1.22 0.21,0 0.33,0.1 0.33,0.34l0 0zm32.3 -0.12c0,0.58 -1.07,1.95 -3.23,4.11 -3.23,3.19 -6.18,4.81 -8.86,4.81 -1.15,0 -2.16,-0.22 -3.01,-0.64 -4.84,6.78 -9.38,10.19 -13.61,10.19 -2.19,0 -4.07,-0.91 -5.63,-2.71 -1.55,-1.79 -2.31,-3.98 -2.31,-6.51 0,-5.6 3.68,-11.02 11.08,-16.25 5.2,-3.68 9.46,-5.51 12.84,-5.51 3.14,0 4.72,1.67 4.72,5.02 0,4.2 -2.22,9.28 -6.63,15.19 0.73,0.42 1.55,0.67 2.46,0.67 1.64,0 3.56,-0.76 5.72,-2.32 2.19,-1.52 3.99,-3.34 5.36,-5.51 0.43,-0.51 0.7,-0.76 0.88,-0.76 0.15,0 0.21,0.07 0.21,0.22l0.01 0zm-8.8 -7.4c0,-2.98 -1.34,-4.44 -4.02,-4.44 -3.32,0 -7.36,3.16 -12.14,9.52 -4.81,6.4 -7.19,11.75 -7.19,16.1 0,2.53 1.19,3.78 3.6,3.78 3.95,0 8.27,-3.26 12.96,-9.77 -1.06,-1.16 -1.61,-2.38 -1.61,-3.62 0,-1.77 0.73,-3.63 2.16,-5.54 1.4,-1.92 2.8,-2.83 4.17,-2.83 0.58,0 0.97,0.33 1.19,1.06 0.57,-1.28 0.88,-2.68 0.88,-4.26l0 0zm46.14 -31.83c0,3.25 -2.31,7.33 -6.91,12.23 -4.59,4.93 -10.62,9.77 -18.08,14.49l9.41 0 -0.49 0.79 -9.53 0 -4.5 8.71c-5.51,10.77 -10.23,18.9 -14.12,24.34 -3.93,5.48 -8.43,10.35 -13.55,14.64 -7.06,5.85 -13.6,8.77 -19.69,8.77 -2.68,0 -4.02,-0.4 -4.02,-1.19 0,-0.36 0.19,-0.54 0.58,-0.54 0.31,0 0.52,0.06 0.67,0.12 1.31,0.39 2.56,0.6 3.71,0.6 4.94,0 9.9,-2.22 14.92,-6.63 3.07,-2.71 5.75,-5.9 8.03,-9.56 1.92,-2.92 6.43,-10.89 13.52,-23.92l8.43 -15.34 -5.85 0 0.43 -0.79 5.97 0c4.68,-7.94 9.86,-14.82 15.49,-20.61 5.69,-5.81 10.04,-8.7 13.12,-8.7 1.64,0 2.46,0.85 2.46,2.59zm-0.67 -0.1c0,-1.21 -0.61,-1.82 -1.83,-1.82 -2.76,0 -6.54,3.19 -11.32,9.56 -2.37,3.19 -5.93,9.16 -10.74,17.95 5.99,-4.17 11.47,-8.92 16.43,-14.24 4.96,-5.33 7.46,-9.16 7.46,-11.45zm-3.62 16.71c0,1.28 -0.55,2.47 -1.62,3.6 -1.06,1.12 -2.25,1.67 -3.53,1.67 -1.67,0 -2.49,-0.82 -2.49,-2.47 0,-1.21 0.58,-2.37 1.7,-3.46 1.16,-1.13 2.35,-1.71 3.6,-1.71 1.55,0 2.34,0.79 2.34,2.37zm0.73 22.62c-0.03,0.12 -0.21,0.43 -0.55,0.88l-2.37 3.23c-6.85,9.55 -12.09,14.36 -15.71,14.36 -1.7,0 -3.13,-0.64 -4.29,-1.85 -1.13,-1.19 -1.73,-2.74 -1.73,-4.54 0,-2.13 1.27,-5.36 3.8,-9.65l8.55 -14.51c1.16,0.27 2.04,0.39 2.68,0.39 1,0 2.37,-0.12 4.17,-0.39l-12.45 20.45c-1.79,2.95 -2.71,5.23 -2.71,6.85 0,1.64 0.89,2.46 2.59,2.46 3.23,0 8.98,-5.81 17.14,-17.47 0.18,-0.36 0.36,-0.55 0.55,-0.55 0.21,0 0.33,0.12 0.33,0.34l0 0z"/>
 </g>
</svg>
